<svg xmlns="http://www.w3.org/2000/svg" width="16" height="20" viewBox="0 0 16 20">
    <defs>
        <style>
            .cls-1,.cls-2{fill:#fff}.cls-1{opacity:0}.cls-3{fill:#ffb400}.cls-4,.cls-5,.cls-6,.cls-7{fill:none}.cls-5{stroke:#484848}.cls-6,.cls-7{stroke-linecap:round;stroke-miterlimit:10;stroke-width:.5px}.cls-6{opacity:.6;stroke:#6b6f86}.cls-7{stroke:#bbbdc4}.cls-10,.cls-8,.cls-9{stroke:none}.cls-9{fill:#484848}.cls-10{fill:#776c50}
        </style>
    </defs>
    <g id="Bulb_for_hint" data-name="Bulb for hint" transform="translate(1051 -129)">
        <g id="bulb">
            <path id="bounding_box" d="M0 0h16v20H0z" class="cls-1" transform="translate(-1051 129)"/>
            <g id="Path_9089" class="cls-2" data-name="Path 9089">
                <path d="M5.942 16.122a2.703 2.703 0 0 1-2.7-2.7v-1.779c0-.66-.533-1.337-1.097-2.053-.266-.338-.541-.688-.734-1.008l-.01-.018-.013-.016C.79 7.718.5 6.866.5 5.942.5 2.942 2.941.5 5.942.5a5.448 5.448 0 0 1 5.443 5.442c0 1.197-.411 2.213-1.293 3.196l-.013.015-.013.017c-.105.139-.218.281-.326.42-.565.716-1.098 1.392-1.098 2.053v1.78c0 1.488-1.211 2.7-2.7 2.7z" class="cls-8" transform="translate(-1049 132)"/>
                <path d="M5.942 15.622c1.213 0 2.2-.987 2.2-2.2v-1.779c0-.834.585-1.577 1.205-2.363.107-.136.218-.277.32-.412l.026-.033.027-.03c.805-.899 1.165-1.782 1.165-2.863A4.948 4.948 0 0 0 5.942 1 4.947 4.947 0 0 0 1 5.942c0 .816.26 1.572.794 2.313l.024.034.021.035c.177.294.442.63.699.956.62.786 1.204 1.529 1.204 2.363v1.78c0 1.212.987 2.2 2.2 2.2m0 1a3.2 3.2 0 0 1-3.2-3.2v-1.78c0-.757-1.172-1.827-1.76-2.803C.377 8 0 7.052 0 5.942a5.942 5.942 0 0 1 11.885 0c0 1.45-.548 2.556-1.42 3.53-.596.785-1.323 1.576-1.323 2.171v1.78a3.2 3.2 0 0 1-3.2 3.2z" class="cls-9" transform="translate(-1049 132)"/>
            </g>
            <path id="Path_8964" d="M3 0a3 3 0 0 1 3 3 3.356 3.356 0 0 1-3 3.387A3.356 3.356 0 0 1 0 3a3 3 0 0 1 3-3z" class="cls-3" data-name="Path 8964" transform="translate(-1046.002 134.998)"/>
            <g id="Path_9090" class="cls-4" data-name="Path 9090">
                <path d="M1 0a1 1 0 0 1 1 1v6H0V1a1 1 0 0 1 1-1z" class="cls-8" transform="translate(-1044 138)"/>
                <path d="M1 .5a.5.5 0 0 0-.5.5v5.5h1V1A.5.5 0 0 0 1 .5M1 0a1 1 0 0 1 1 1v6H0V1a1 1 0 0 1 1-1z" class="cls-10" transform="translate(-1044 138)"/>
            </g>
            <path id="Path_9091" d="M0 0h5" class="cls-5" data-name="Path 9091" transform="translate(-1045.5 144.5)"/>
            <path id="Path_8958" d="M100 11a7.413 7.413 0 0 1 3.867 6.514" class="cls-6" data-name="Path 8958" transform="translate(-1139.481 120.12)"/>
            <path id="Path_8959" d="M68.6 3a7.5 7.5 0 0 1 1.821.226" class="cls-6" data-name="Path 8959" transform="translate(-1111.632 127.216)"/>
            <path id="Path_8960" d="M44.6 4.762a6.585 6.585 0 0 1 1.221-.362" class="cls-6" data-name="Path 8960" transform="translate(-1090.346 125.974)"/>
            <path id="Path_8961" d="M3.373 37.859A7.628 7.628 0 0 1 3 35.518 7.4 7.4 0 0 1 4.312 31.3" class="cls-6" data-name="Path 8961" transform="translate(-1053.45 102.116)"/>
        </g>
    </g>
</svg>
