<svg xmlns="http://www.w3.org/2000/svg" width="20" height="20" viewBox="0 0 20 20">
    <defs>
        <style>
            .cls-1{fill:#fff;opacity:0}.cls-2{fill:#f87b93}.cls-3{fill:#eb5874}.cls-4{fill:#6d6daa}
        </style>
    </defs>
    <g id="ic_redflag" transform="translate(-2155.744 -640.24)">
        <path id="Path_9193" d="M0 0h20v20H0z" class="cls-1" data-name="Path 9193" transform="translate(2155.744 640.24)"/>
        <path id="Path_9192" d="M2157.081 644.7c-.187.176 2.944 8.714 2.944 8.714s1.733-1.882 2.89-2.05 7.543.719 8.6.373 3.473-2.454 3.349-2.789-3.026-8.213-3.161-8.265-1.922 2.247-3.033 2.321-7.383-.3-8.294 0a20.735 20.735 0 0 0-3.295 1.696z" class="cls-2" data-name="Path 9192" transform="translate(-.41 -.137)"/>
        <path id="Path_9191" d="M1.995 14.354l-2.147-7.68A7.417 7.417 0 0 1 1.263 5.61l2.575 7.507A12.675 12.675 0 0 0 2 14.353zm10.037-1.584c-.637-.023-1.4-.077-2.2-.133l-.155-.011a70.982 70.982 0 0 0-2.407-.14L4.653 4.863c.6.016 1.265.056 1.91.1h.021c.84.051 1.709.1 2.482.1h.322l2.644 7.708zm2.066-.354l-2.651-7.73a6.383 6.383 0 0 0 2.414-1.736l2.83 7.4-.006.007a19.3 19.3 0 0 1-2.585 2.058z" class="cls-3" data-name="Path 9191" transform="translate(2157.406 638.886)"/>
        <path id="Path_9188" d="M18.723-16.92q.066-.066.022-.221l-2.692-7.6a6.417 6.417 0 0 1-1.368 1.193 6.254 6.254 0 0 1-1.357.674 5.963 5.963 0 0 1-1.5.265 11.333 11.333 0 0 1-1.379.022q-.508-.033-1.523-.122-1.236-.11-2.328-.144a6.04 6.04 0 0 0-2.251.387 5.994 5.994 0 0 0-2.152 1.392l2.56 7.4A6.815 6.815 0 0 1 6.509-14.8a5.832 5.832 0 0 1 1.975-.464 16.446 16.446 0 0 1 1.71 0q.717.044 1.843.2.794.11 1.258.155t1.159.066a5.033 5.033 0 0 0 1.17-.077 8.083 8.083 0 0 0 1.059-.309 3.389 3.389 0 0 0 1.081-.641 6.7 6.7 0 0 0 .959-1.05zM17-25.075l2.692 7.646a1.237 1.237 0 0 1-.177 1.149 7.03 7.03 0 0 1-1.456 1.4 5.566 5.566 0 0 1-1.456.762 6.2 6.2 0 0 1-1.6.265 10.569 10.569 0 0 1-1.479-.011q-.563-.055-1.622-.188-1.125-.155-1.821-.2a12.208 12.208 0 0 0-1.622.022 4.824 4.824 0 0 0-1.81.464 5.544 5.544 0 0 0-1.545 1.149l2.122 6.194a.432.432 0 0 1-.309.619l-.154.044a.464.464 0 0 1-.485-.354l-5.12-14.917v-.044l-.375-1.061a.432.432 0 0 1 .309-.619.42.42 0 0 1 .386.011.509.509 0 0 1 .254.3l.11.331a6.994 6.994 0 0 1 2.416-1.392 6.636 6.636 0 0 1 2.442-.354q1.1.066 2.328.166t2.284.122a5.136 5.136 0 0 0 2.1-.409 5.122 5.122 0 0 0 1.9-1.425.974.974 0 0 1 .949-.331 1 1 0 0 1 .739.661z" class="cls-4" data-name="Path 9188" transform="translate(2155 666)"/>
    </g>
</svg>
